<?xml version="1.0" standalone="no"?>
<!DOCTYPE svg PUBLIC "-//W3C//DTD SVG 20010904//EN"
 "http://www.w3.org/TR/2001/REC-SVG-20010904/DTD/svg10.dtd">
<svg version="1.0" xmlns="http://www.w3.org/2000/svg"
 width="16.000000pt" height="16.000000pt" viewBox="0 0 16.000000 16.000000"
 preserveAspectRatio="xMidYMid meet">
<metadata>
Created by potrace 1.11, written by Peter Selinger 2001-2013
</metadata>
<g transform="translate(0.000000,16.000000) scale(0.005797,-0.005797)"
fill="#000000" stroke="none">
<path d="M997 2200 c-37 -29 -62 -172 -62 -355 1 -155 13 -229 55 -322 30 -66
106 -155 152 -179 26 -14 28 -19 28 -79 l0 -64 -52 27 c-48 25 -61 27 -163 26
-107 -1 -211 -19 -362 -61 l-62 -17 -56 38 c-95 66 -175 177 -235 326 -44 108
-80 131 -150 95 -41 -21 -63 -68 -58 -120 6 -53 76 -200 132 -279 72 -101 185
-199 288 -251 49 -25 96 -45 103 -45 8 0 21 -53 39 -168 15 -92 32 -195 37
-229 l11 -63 763 0 762 0 23 108 c12 59 32 152 44 207 l21 100 210 143 c239
162 255 176 255 211 0 28 -197 357 -227 379 -40 29 -113 -9 -113 -60 0 -13 36
-81 80 -152 44 -70 80 -133 80 -140 -1 -17 -232 -170 -255 -168 -11 1 -115 22
-232 47 -117 25 -224 45 -238 45 -14 0 -53 -18 -86 -40 l-59 -41 0 105 0 105
44 30 c85 59 144 159 172 293 21 95 14 360 -11 465 -24 103 -71 131 -132 79
l-27 -24 17 -103 c27 -163 30 -229 18 -323 -14 -101 -38 -172 -76 -222 l-26
-34 -229 0 -229 0 -30 37 c-17 21 -41 67 -53 103 -20 57 -23 84 -22 225 0 114
5 179 17 227 18 74 12 109 -22 127 -29 16 -55 13 -84 -9z m787 -1197 c-2 -10
-20 -92 -39 -183 -51 -241 -44 -218 -61 -196 -11 15 -14 56 -14 170 l0 151 58
37 c31 21 58 38 59 38 0 0 -1 -8 -3 -17z m-614 -207 c0 -71 -2 -127 -4 -125
-2 2 -14 65 -25 139 -12 74 -24 146 -26 160 -5 23 -3 22 25 -10 29 -35 29 -35
30 -164z"/>
<path d="M1325 1913 c-72 -37 -114 -105 -115 -181 0 -115 87 -202 203 -202 67
0 112 18 153 62 46 48 57 76 58 138 0 81 -48 155 -121 186 -43 19 -141 17
-178 -3z"/>
<path d="M690 1664 c-82 -36 -124 -106 -118 -200 7 -115 84 -188 199 -188 130
-1 217 125 178 261 -30 109 -157 171 -259 127z"/>
<path d="M2008 1561 c-54 -34 -98 -113 -98 -175 0 -63 41 -140 91 -173 36 -24
53 -28 110 -28 59 0 73 4 110 30 85 60 114 177 68 273 -49 99 -183 135 -281
73z"/>
</g>
</svg>
